<svg xmlns="http://www.w3.org/2000/svg" version="1.1" xmlns:xlink="http://www.w3.org/1999/xlink" xmlns:svgjs="http://svgjs.dev/svgjs" width="1500" height="246" viewBox="0 0 1500 246"><g transform="matrix(1,0,0,1,-0.9090909090911055,0.499890684599265)"><svg viewBox="0 0 396 65" data-background-color="#ffffff" preserveAspectRatio="xMidYMid meet" height="246" width="1500" xmlns="http://www.w3.org/2000/svg" xmlns:xlink="http://www.w3.org/1999/xlink"><g id="tight-bounds" transform="matrix(1,0,0,1,0.24000000000003752,-0.13208493698761004)"><svg viewBox="0 0 395.5199999999999 65.26416987397519" height="65.26416987397519" width="395.5199999999999"><g><svg viewBox="0 0 485.67921798919207 80.14120900866217" height="65.26416987397519" width="395.5199999999999"><g transform="matrix(1,0,0,1,0,11.075955803657365)"><svg viewBox="0 0 395.52 57.98929740134744" height="57.98929740134744" width="395.52"><g id="textblocktransform"><svg viewBox="0 0 395.52 57.98929740134744" height="57.98929740134744" width="395.52" id="textblock"><g><svg viewBox="0 0 395.52 57.98929740134744" height="57.98929740134744" width="395.52"><g transform="matrix(1,0,0,1,0,0)"><svg width="395.52" viewBox="0.8 -34.8 311.67 45.699999999999996" height="57.98929740134744" data-palette-color="#556970"><g class="wordmark-text-0" data-fill-palette-color="primary" id="text-0"><path d="M14.45 0.7L14.45 0.7Q12 0.7 10.08-0.4 8.15-1.5 7.1-3.58 6.05-5.65 6.05-8.7L6.05-8.7 6.05-30.1 10.95-30.1 10.95-8.65Q10.95-6.9 11.53-5.8 12.1-4.7 13.08-4.17 14.05-3.65 15.2-3.65L15.2-3.65Q16.6-3.65 17.8-4 19-4.35 20-4.9L20-4.9 21.5-1.2Q20.25-0.45 18.5 0.13 16.75 0.7 14.45 0.7ZM18.75-19.6L0.8-19.6 0.8-23.55 18.75-23.55 18.75-19.6ZM32.45-11.8L32.45-11.8 32.45-15.7Q34.3-18.15 36.4-20.08 38.5-22 40.75-23.08 43-24.15 45.25-24.15L45.25-24.15 47.35-24.15 47.35-14.1 43.05-14.1 43.05-19.3Q41.5-19.3 39.75-18.4 38-17.5 36.15-15.83 34.3-14.15 32.45-11.8ZM39.4 0L23.8 0 23.8-3.95 39.4-3.95 39.4 0ZM34.05-1.1L29.1-1.1 29.1-23.55 34.05-23.55 34.05-1.1ZM33.75-19.6L23.8-19.6 23.8-23.55 33.75-23.55 33.75-19.6ZM61.5-1.1L56.55-1.1 56.55-23.55 61.5-23.55 61.5-1.1ZM66.84 0L51.25 0 51.25-3.95 66.84-3.95 66.84 0ZM60.34-19.6L51.25-19.6 51.25-23.55 60.34-23.55 60.34-19.6ZM58.4-28.7L58.4-28.7Q56.84-28.7 55.72-29.55 54.59-30.4 54.59-31.65L54.59-31.65Q54.59-33.05 55.72-33.93 56.84-34.8 58.4-34.8L58.4-34.8Q60.15-34.8 61.25-33.93 62.34-33.05 62.34-31.65L62.34-31.65Q62.34-30.4 61.25-29.55 60.15-28.7 58.4-28.7ZM86.69 0.7L86.69 0.7Q84.04 0.7 82.07-0.28 80.09-1.25 78.57-2.7 77.04-4.15 75.89-5.5L75.89-5.5 75.89-9.05Q77.04-7.65 78.57-6.38 80.09-5.1 81.87-4.3 83.64-3.5 85.59-3.5L85.59-3.5Q87.39-3.5 88.89-4.13 90.39-4.75 91.49-5.9 92.59-7.05 93.19-8.6 93.79-10.15 93.79-12.05L93.79-12.05Q93.79-14.45 92.87-16.25 91.94-18.05 90.29-19.03 88.64-20 86.49-19.95L86.49-19.95Q84.54-19.95 82.59-18.8 80.64-17.65 78.97-15.68 77.29-13.7 76.04-11.1L76.04-11.1 76.04-14.9Q77.24-17.6 79.12-19.68 80.99-21.75 83.29-22.95 85.59-24.15 87.99-24.15L87.99-24.15Q90.94-24.15 93.42-22.63 95.89-21.1 97.42-18.38 98.94-15.65 98.94-12L98.94-12Q98.94-9.2 97.99-6.88 97.04-4.55 95.37-2.88 93.69-1.2 91.49-0.25 89.29 0.7 86.69 0.7ZM83.94 10.9L68.44 10.9 68.44 6.95 83.94 6.95 83.94 10.9ZM78.54 9.85L73.69 9.85 73.69-23.55 78.54-23.55 78.54 9.85ZM78.34-19.6L68.44-19.6 68.44-23.55 78.34-23.55 78.34-19.6Z" fill="#556970" data-fill-palette-color="primary"></path><path d="M128.14 0.7L128.14 0.7Q125.69 0.7 123.76-0.4 121.84-1.5 120.79-3.58 119.74-5.65 119.74-8.7L119.74-8.7 119.74-30.1 124.64-30.1 124.64-8.65Q124.64-6.9 125.21-5.8 125.79-4.7 126.76-4.17 127.74-3.65 128.89-3.65L128.89-3.65Q130.29-3.65 131.49-4 132.69-4.35 133.69-4.9L133.69-4.9 135.19-1.2Q133.94-0.45 132.19 0.13 130.44 0.7 128.14 0.7ZM132.44-19.6L114.49-19.6 114.49-23.55 132.44-23.55 132.44-19.6ZM146.14-11.8L146.14-11.8 146.14-15.7Q147.99-18.15 150.09-20.08 152.19-22 154.44-23.08 156.69-24.15 158.94-24.15L158.94-24.15 161.04-24.15 161.04-14.1 156.74-14.1 156.74-19.3Q155.19-19.3 153.44-18.4 151.69-17.5 149.84-15.83 147.99-14.15 146.14-11.8ZM153.09 0L137.49 0 137.49-3.95 153.09-3.95 153.09 0ZM147.74-1.1L142.79-1.1 142.79-23.55 147.74-23.55 147.74-1.1ZM147.44-19.6L137.49-19.6 137.49-23.55 147.44-23.55 147.44-19.6ZM178.58 0.7L178.58 0.7Q176.13 0.7 173.81-0.08 171.48-0.85 169.61-2.35 167.73-3.85 166.63-6.08 165.53-8.3 165.53-11.2L165.53-11.2Q165.53-14.3 166.66-16.7 167.78-19.1 169.68-20.75 171.58-22.4 173.93-23.28 176.28-24.15 178.78-24.15L178.78-24.15Q181.78-24.15 184.08-23.23 186.38-22.3 187.71-20.63 189.03-18.95 189.03-16.7L189.03-16.7Q189.03-14.4 187.66-12.85 186.28-11.3 184.08-10.53 181.88-9.75 179.43-9.75L179.43-9.75Q176.38-9.75 173.96-10.48 171.53-11.2 169.23-12.25L169.23-12.25 169.18-15.25Q171.83-14.1 174.06-13.65 176.28-13.2 178.38-13.2L178.38-13.2Q179.98-13.2 181.26-13.6 182.53-14 183.33-14.8 184.13-15.6 184.13-16.7L184.13-16.7Q184.13-18.3 182.73-19.28 181.33-20.25 179.13-20.25L179.13-20.25Q177.48-20.25 175.91-19.63 174.33-19 173.06-17.85 171.78-16.7 171.01-15.08 170.23-13.45 170.23-11.35L170.23-11.35Q170.23-8.9 171.43-7.13 172.63-5.35 174.56-4.42 176.48-3.5 178.73-3.5L178.73-3.5Q181.53-3.5 183.66-4.42 185.78-5.35 187.43-6.75L187.43-6.75 189.53-3.5Q188.13-2.3 186.51-1.35 184.88-0.4 182.91 0.15 180.93 0.7 178.58 0.7ZM211.28-8.65L211.28-8.65Q209.38-8.65 207.68-9 205.98-9.35 204.41-9.9 202.83-10.45 201.33-11.05L201.33-11.05 201.33-14.25Q203.08-13.55 204.66-13.1 206.23-12.65 207.63-12.48 209.03-12.3 210.23-12.3L210.23-12.3Q211.88-12.35 213.28-12.8 214.68-13.25 215.56-14.18 216.43-15.1 216.43-16.45L216.43-16.45Q216.43-18.15 215.21-19.1 213.98-20.05 211.83-20.05L211.83-20.05Q210.38-20.05 208.61-19.43 206.83-18.8 204.98-17.68 203.13-16.55 201.33-14.95L201.33-14.95 201.43-18.35Q203.13-20.05 205.01-21.35 206.88-22.65 208.93-23.4 210.98-24.15 213.08-24.15L213.08-24.15Q215.33-24.15 217.28-23.3 219.23-22.45 220.41-20.78 221.58-19.1 221.53-16.6L221.53-16.6Q221.53-14.7 220.63-13.23 219.73-11.75 218.28-10.73 216.83-9.7 215.01-9.18 213.18-8.65 211.28-8.65ZM207.63 0L192.63 0 192.63-3.95 207.63-3.95 207.63 0ZM202.63-1.1L197.88-1.1 197.88-34.3 202.63-34.3 202.63-1.1ZM202.33-30.35L192.63-30.35 192.63-34.3 202.33-34.3 202.33-30.35ZM219.88 0.7L219.88 0.7Q217.53 0.7 215.71-0.55 213.88-1.8 212.73-4.15 211.58-6.5 211.23-9.85L211.23-9.85 214.78-9.85Q215.23-7.65 216.01-6.23 216.78-4.8 217.86-4.1 218.93-3.4 220.23-3.35L220.23-3.35Q221.18-3.35 222.01-3.55 222.83-3.75 223.58-4.15L223.58-4.15 224.63-0.6Q223.68 0 222.46 0.35 221.23 0.7 219.88 0.7ZM245.28-8.65L245.28-8.65Q243.38-8.65 241.68-9 239.98-9.35 238.4-9.9 236.83-10.45 235.33-11.05L235.33-11.05 235.33-14.25Q237.08-13.55 238.65-13.1 240.23-12.65 241.63-12.48 243.03-12.3 244.23-12.3L244.23-12.3Q245.88-12.35 247.28-12.8 248.68-13.25 249.55-14.18 250.43-15.1 250.43-16.45L250.43-16.45Q250.43-18.15 249.2-19.1 247.98-20.05 245.83-20.05L245.83-20.05Q244.38-20.05 242.6-19.43 240.83-18.8 238.98-17.68 237.13-16.55 235.33-14.95L235.33-14.95 235.43-18.35Q237.13-20.05 239-21.35 240.88-22.65 242.93-23.4 244.98-24.15 247.08-24.15L247.08-24.15Q249.33-24.15 251.28-23.3 253.23-22.45 254.4-20.78 255.58-19.1 255.53-16.6L255.53-16.6Q255.53-14.7 254.63-13.23 253.73-11.75 252.28-10.73 250.83-9.7 249-9.18 247.18-8.65 245.28-8.65ZM241.63 0L226.63 0 226.63-3.95 241.63-3.95 241.63 0ZM236.63-1.1L231.88-1.1 231.88-34.3 236.63-34.3 236.63-1.1ZM236.33-30.35L226.63-30.35 226.63-34.3 236.33-34.3 236.33-30.35ZM253.88 0.7L253.88 0.7Q251.53 0.7 249.7-0.55 247.88-1.8 246.73-4.15 245.58-6.5 245.23-9.85L245.23-9.85 248.78-9.85Q249.23-7.65 250-6.23 250.78-4.8 251.85-4.1 252.93-3.4 254.23-3.35L254.23-3.35Q255.18-3.35 256-3.55 256.83-3.75 257.58-4.15L257.58-4.15 258.63-0.6Q257.68 0 256.45 0.35 255.23 0.7 253.88 0.7ZM274.58 0.7L274.58 0.7Q272.13 0.7 269.8-0.08 267.48-0.85 265.6-2.35 263.73-3.85 262.63-6.08 261.53-8.3 261.53-11.2L261.53-11.2Q261.53-14.3 262.65-16.7 263.78-19.1 265.68-20.75 267.58-22.4 269.93-23.28 272.28-24.15 274.78-24.15L274.78-24.15Q277.78-24.15 280.08-23.23 282.38-22.3 283.7-20.63 285.03-18.95 285.03-16.7L285.03-16.7Q285.03-14.4 283.65-12.85 282.28-11.3 280.08-10.53 277.88-9.75 275.43-9.75L275.43-9.75Q272.38-9.75 269.95-10.48 267.53-11.2 265.23-12.25L265.23-12.25 265.18-15.25Q267.83-14.1 270.05-13.65 272.28-13.2 274.38-13.2L274.38-13.2Q275.98-13.2 277.25-13.6 278.53-14 279.33-14.8 280.13-15.6 280.13-16.7L280.13-16.7Q280.13-18.3 278.73-19.28 277.33-20.25 275.13-20.25L275.13-20.25Q273.48-20.25 271.9-19.63 270.33-19 269.05-17.85 267.78-16.7 267-15.08 266.23-13.45 266.23-11.35L266.23-11.35Q266.23-8.9 267.43-7.13 268.63-5.35 270.55-4.42 272.48-3.5 274.73-3.5L274.73-3.5Q277.53-3.5 279.65-4.42 281.78-5.35 283.43-6.75L283.43-6.75 285.53-3.5Q284.13-2.3 282.5-1.35 280.88-0.4 278.9 0.15 276.93 0.7 274.58 0.7ZM297.57-11.8L297.57-11.8 297.57-15.7Q299.42-18.15 301.52-20.08 303.62-22 305.87-23.08 308.12-24.15 310.37-24.15L310.37-24.15 312.47-24.15 312.47-14.1 308.17-14.1 308.17-19.3Q306.62-19.3 304.87-18.4 303.12-17.5 301.27-15.83 299.42-14.15 297.57-11.8ZM304.52 0L288.92 0 288.92-3.95 304.52-3.95 304.52 0ZM299.17-1.1L294.22-1.1 294.22-23.55 299.17-23.55 299.17-1.1ZM298.87-19.6L288.92-19.6 288.92-23.55 298.87-23.55 298.87-19.6Z" fill="#aba944" data-fill-palette-color="accent"></path></g></svg></g></svg></g></svg></g></svg></g><g transform="matrix(1,0,0,1,409.20988137332046,0)"><svg viewBox="0 0 76.46933661587157 80.14120900866217" height="80.14120900866217" width="76.46933661587157"><g><svg xmlns="http://www.w3.org/2000/svg" xmlns:xlink="http://www.w3.org/1999/xlink" version="1.1" x="0" y="0" viewBox="15.989575904190279 10.310000000000006 67.92218061912395 71.18363927576586" enable-background="new 0 0 100 100" xml:space="preserve" height="80.14120900866217" width="76.46933661587157" class="icon-icon-0" data-fill-palette-color="accent" id="icon-0"><g fill="#aba944" data-fill-palette-color="accent"><path d="M68.942 17.667c-0.033-0.052-0.068-0.107-0.101-0.157C68.843 17.583 68.887 17.633 68.942 17.667z" fill="#aba944" data-fill-palette-color="accent"></path><path d="M62.122 50.63c2.198-2.441 3.941-5.338 6.479-7.44 0.152-1.831 1.41-1.026 0.96-2.64 0.717-0.344 0.816 0.196 1.44-0.24-0.644-1.58 1.068-1.582 0.72-3.12 0.655-0.021 0.483 0.4 0.96 0 0.376-1.728 2.63-3.983 2.4-6.96 0.317 0.003 0.219 0.421 0.479 0.48 4.241-9.524-2.837-19.233-12.24-20.4-0.8 0-1.6 0-2.399 0-4.271 0.479-7.21 2.59-9.84 5.28-1.802 3.251-3.744 6.781-3.12 11.04C49.273 35.581 58.1 44.373 62.122 50.63zM51.321 22.79c1.017-6.56 9.455-11.317 16.32-6.96-0.575 1.351 1.14 0.529 1.68 1.68-0.041 0.21-0.251 0.237-0.379 0.157 0.6 0.939 1.387 2.228 2.3 2.482-0.028 0.92 0.396 4.007 1.439 5.76-1.317-0.34-0.738 1.398-1.439 3.36-0.528 1.476-2.23 4.839-3.12 6.48-0.556 1.025-1.705 2.878-2.16 3.6-0.038 0.06-0.401-0.351-0.48-0.24-1.227 1.72-2.001 3.813-3.12 5.28-1.557-0.736-2.406-2.944-3.84-4.8C55.638 35.854 50.269 29.588 51.321 22.79z" fill="#aba944" data-fill-palette-color="accent"></path><path d="M64.042 29.99c2.655-1.052 3.836-5.746 2.677-8.541 0.059 0.077 0.17 0.099 0.203-0.1-0.188-0.053-0.279-0.201-0.24-0.48-1.626-1.319-4.378-2.565-6.96-1.44C54.05 21.901 55.984 31.9 64.042 29.99zM59.962 24.95c0.811-0.469 1.669-0.891 2.88-0.96 0.684 0.449 0.684 2.431 0 2.88C61.196 26.915 60.011 26.501 59.962 24.95z" fill="#aba944" data-fill-palette-color="accent"></path><path d="M77.722 31.43c-0.825-0.105-1.345 0.095-1.92 0.24-0.52 3.747 2.423 5.621 3.6 9.12 1.678 4.986 1.538 14.692-1.199 19.44-0.072 1.996-2.011 4.312-3.447 5.933 0.1-0.069 0.205-0.069 0.327 0.067-1.223 1.174-2.216 4.261-3.36 3.119-0.268 0.558 0.052 0.643-0.479 1.2-3.567 0.324-3.661 3.933-6.48 4.08 0.306-0.334 1.176-0.104 1.2-0.72-2.187 1.254-4.861 2.02-6.96 3.36-1.899-1.688-5.029 1.202-6.72-0.24-4.943 0.38-9.064-1.335-13.44-3.12-0.312-0.563 0.122-0.537-0.48-0.96-2.851-1.358-5.28-2.946-6.72-4.8 0.49 0.07 0.471 0.649 0.96 0.72-0.874-2.087-3.581-3.617-3.6-5.76 6.643-0.717 12.945-1.774 18.24-3.84-0.722 1.216-0.772 2.733-0.24 4.319 3.656 1.869 4.572-1.918 5.76-4.56 0.642-1.428 2.115-3.815 1.92-5.04-0.248-1.556-2.062-1.622-3.12-2.4-2.015-1.481-4.686-5.388-6.96-5.04-0.988 0.151-1.964 1.291-1.92 2.4 0.093 2.347 4.446 3.397 5.52 5.28-6.649 2.253-13.278 4.589-22.08 4.08 0.09-2.049-1.01-3.991-1.2-6-0.613-6.477 1.995-12.766 3.84-16.081 3.764-6.76 10.859-11.196 17.52-13.68 0.497-1.348-0.142-2.431-0.96-3.12-3.944-0.247-6.953 3.062-9.36 4.08-1.764 0.746-2.993 1.591-4.32 2.88C25.501 32.353 21.1 40.052 21.322 51.35c-2.498 1.462-5.788 3.278-5.28 6.48 0.436 2.75 3.909 3.666 7.2 4.08 5.267 9.505 12.031 17.367 24.48 19.2C76.868 85.401 93.742 52.729 77.722 31.43zM19.162 56.87c0.85-0.475 1.684-0.388 2.4-0.24-0.054 0.854 0.162 1.438 0.72 1.681C21.311 58.714 19.332 58.065 19.162 56.87z" fill="#aba944" data-fill-palette-color="accent"></path><path d="M74.562 66.379c-0.362 0.406-0.685 0.765-0.921 1.051C74.063 67.405 74.314 66.756 74.562 66.379z" fill="#aba944" data-fill-palette-color="accent"></path></g></svg></g></svg></g></svg></g><defs></defs></svg><rect width="395.5199999999999" height="65.26416987397519" fill="none" stroke="none" visibility="hidden"></rect></g></svg></g></svg>